%TF.GenerationSoftware,KiCad,Pcbnew,10.0.6*%
%TF.CreationDate,2026-09-27T01:58:32-06:00*%
%TF.ProjectId,ZeroStack_MiniBadge,5a65726f-5374-4616-936b-5f4d696e6942,rev?*%
%TF.SameCoordinates,Original*%
%TF.FileFunction,Soldermask,Top*%
%TF.FilePolarity,Negative*%
%FSLAX46Y46*%
G04 Gerber Fmt 4.6, Leading zero omitted, Abs format (unit mm)*
G04 Created by KiCad (PCBNEW 10.0.6) date 2026-09-27 01:58:32*
%MOMM*%
%LPD*%
G01*
G04 APERTURE LIST*
G04 Aperture macros list*
%AMRoundRect*
0 Rectangle with rounded corners*
0 $1 Rounding radius*
0 $2 $3 $4 $5 $6 $7 $8 $9 X,Y pos of 4 corners*
0 Add a 4 corners polygon primitive as box body*
4,1,4,$2,$3,$4,$5,$6,$7,$8,$9,$2,$3,0*
0 Add four circle primitives for the rounded corners*
1,1,$1+$1,$2,$3*
1,1,$1+$1,$4,$5*
1,1,$1+$1,$6,$7*
1,1,$1+$1,$8,$9*
0 Add four rect primitives between the rounded corners*
20,1,$1+$1,$2,$3,$4,$5,0*
20,1,$1+$1,$4,$5,$6,$7,0*
20,1,$1+$1,$6,$7,$8,$9,0*
20,1,$1+$1,$8,$9,$2,$3,0*%
G04 Aperture macros list end*
%ADD10RoundRect,0.250000X0.250000X0.475000X-0.250000X0.475000X-0.250000X-0.475000X0.250000X-0.475000X0*%
%ADD11C,1.500000*%
%ADD12RoundRect,0.150000X0.825000X0.150000X-0.825000X0.150000X-0.825000X-0.150000X0.825000X-0.150000X0*%
%ADD13C,2.200000*%
%ADD14RoundRect,0.250000X0.625000X-0.375000X0.625000X0.375000X-0.625000X0.375000X-0.625000X-0.375000X0*%
%ADD15RoundRect,0.250000X0.625000X-0.312500X0.625000X0.312500X-0.625000X0.312500X-0.625000X-0.312500X0*%
%ADD16C,1.750000*%
%ADD17RoundRect,0.250000X-0.625000X0.312500X-0.625000X-0.312500X0.625000X-0.312500X0.625000X0.312500X0*%
G04 APERTURE END LIST*
D10*
%TO.C,C1*%
X117400000Y-93500000D03*
X115500000Y-93500000D03*
%TD*%
D11*
%TO.C,TP1*%
X110865000Y-82865000D03*
%TD*%
D12*
%TO.C,U1*%
X113150000Y-90080000D03*
X113150000Y-88810000D03*
X113150000Y-87540000D03*
X113150000Y-86270000D03*
X108200000Y-86270000D03*
X108200000Y-87540000D03*
X108200000Y-88810000D03*
X108200000Y-90080000D03*
%TD*%
D13*
%TO.C,REF\u002A\u002A*%
X118000000Y-83000000D03*
%TD*%
D14*
%TO.C,D3*%
X120000000Y-89500000D03*
X120000000Y-86700000D03*
%TD*%
D15*
%TO.C,R2*%
X105000000Y-89500000D03*
X105000000Y-86575000D03*
%TD*%
D13*
%TO.C,REF\u002A\u002A*%
X103500000Y-83000000D03*
%TD*%
D16*
%TO.C,MB1*%
X101785000Y-79285000D03*
X104325000Y-79285000D03*
X106865000Y-79285000D03*
X109405000Y-79285000D03*
X111945000Y-79285000D03*
X114485000Y-79285000D03*
X117025000Y-79285000D03*
X119565000Y-79285000D03*
X101785000Y-97065000D03*
X104325000Y-97065000D03*
X106865000Y-97065000D03*
X109405000Y-97065000D03*
X111945000Y-97065000D03*
X114485000Y-97065000D03*
X117025000Y-97065000D03*
X119565000Y-97065000D03*
%TD*%
D17*
%TO.C,R3*%
X116500000Y-86575000D03*
X116500000Y-89500000D03*
%TD*%
D14*
%TO.C,D2*%
X101500000Y-89500000D03*
X101500000Y-86700000D03*
%TD*%
D13*
%TO.C,REF\u002A\u002A*%
X110675000Y-93500000D03*
%TD*%
M02*
