%TF.GenerationSoftware,KiCad,Pcbnew,10.0.6*%
%TF.CreationDate,2026-09-27T01:58:32-06:00*%
%TF.ProjectId,ZeroStack_MiniBadge,5a65726f-5374-4616-936b-5f4d696e6942,rev?*%
%TF.SameCoordinates,Original*%
%TF.FileFunction,Copper,L1,Top*%
%TF.FilePolarity,Positive*%
%FSLAX46Y46*%
G04 Gerber Fmt 4.6, Leading zero omitted, Abs format (unit mm)*
G04 Created by KiCad (PCBNEW 10.0.6) date 2026-09-27 01:58:32*
%MOMM*%
%LPD*%
G01*
G04 APERTURE LIST*
G04 Aperture macros list*
%AMRoundRect*
0 Rectangle with rounded corners*
0 $1 Rounding radius*
0 $2 $3 $4 $5 $6 $7 $8 $9 X,Y pos of 4 corners*
0 Add a 4 corners polygon primitive as box body*
4,1,4,$2,$3,$4,$5,$6,$7,$8,$9,$2,$3,0*
0 Add four circle primitives for the rounded corners*
1,1,$1+$1,$2,$3*
1,1,$1+$1,$4,$5*
1,1,$1+$1,$6,$7*
1,1,$1+$1,$8,$9*
0 Add four rect primitives between the rounded corners*
20,1,$1+$1,$2,$3,$4,$5,0*
20,1,$1+$1,$4,$5,$6,$7,0*
20,1,$1+$1,$6,$7,$8,$9,0*
20,1,$1+$1,$8,$9,$2,$3,0*%
G04 Aperture macros list end*
%TA.AperFunction,SMDPad,CuDef*%
%ADD10RoundRect,0.250000X0.250000X0.475000X-0.250000X0.475000X-0.250000X-0.475000X0.250000X-0.475000X0*%
%TD*%
%TA.AperFunction,SMDPad,CuDef*%
%ADD11C,1.500000*%
%TD*%
%TA.AperFunction,SMDPad,CuDef*%
%ADD12RoundRect,0.150000X0.825000X0.150000X-0.825000X0.150000X-0.825000X-0.150000X0.825000X-0.150000X0*%
%TD*%
%TA.AperFunction,SMDPad,CuDef*%
%ADD13RoundRect,0.250000X0.625000X-0.375000X0.625000X0.375000X-0.625000X0.375000X-0.625000X-0.375000X0*%
%TD*%
%TA.AperFunction,SMDPad,CuDef*%
%ADD14RoundRect,0.250000X0.625000X-0.312500X0.625000X0.312500X-0.625000X0.312500X-0.625000X-0.312500X0*%
%TD*%
%TA.AperFunction,ComponentPad*%
%ADD15C,1.750000*%
%TD*%
%TA.AperFunction,SMDPad,CuDef*%
%ADD16RoundRect,0.250000X-0.625000X0.312500X-0.625000X-0.312500X0.625000X-0.312500X0.625000X0.312500X0*%
%TD*%
%TA.AperFunction,Conductor*%
%ADD17C,0.200000*%
%TD*%
G04 APERTURE END LIST*
D10*
%TO.P,C1,1*%
%TO.N,GND*%
X117400000Y-93500000D03*
%TO.P,C1,2*%
%TO.N,+3V3*%
X115500000Y-93500000D03*
%TD*%
D11*
%TO.P,TP1,1,1_1*%
%TO.N,Net-(U1-~{RESET}{slash}PA0)*%
X110865000Y-82865000D03*
%TD*%
D12*
%TO.P,U1,1,VCC_1*%
%TO.N,+3V3*%
X113150000Y-90080000D03*
%TO.P,U1,2,PA6_2*%
%TO.N,unconnected-(U1-PA6-Pad2)*%
X113150000Y-88810000D03*
%TO.P,U1,3,PA7_3*%
%TO.N,unconnected-(U1-PA7-Pad3)*%
X113150000Y-87540000D03*
%TO.P,U1,4,PA1_4*%
%TO.N,Net-(U1-PA1)*%
X113150000Y-86270000D03*
%TO.P,U1,5,PA2_5*%
%TO.N,Net-(U1-PA2)*%
X108200000Y-86270000D03*
%TO.P,U1,6,~{RESET}/PA0_6*%
%TO.N,Net-(U1-~{RESET}{slash}PA0)*%
X108200000Y-87540000D03*
%TO.P,U1,7,PA3_7*%
%TO.N,unconnected-(U1-PA3-Pad7)*%
X108200000Y-88810000D03*
%TO.P,U1,8,GND_8*%
%TO.N,GND*%
X108200000Y-90080000D03*
%TD*%
D13*
%TO.P,D3,1,K_1*%
%TO.N,GND*%
X120000000Y-89500000D03*
%TO.P,D3,2,A_2*%
%TO.N,Net-(D3-A)*%
X120000000Y-86700000D03*
%TD*%
D14*
%TO.P,R2,1*%
%TO.N,Net-(U1-PA1)*%
X105000000Y-89500000D03*
%TO.P,R2,2*%
%TO.N,Net-(D2-A)*%
X105000000Y-86575000D03*
%TD*%
D15*
%TO.P,MB1,1,+VBATT_1*%
%TO.N,unconnected-(MB1-+VBATT-Pad1)*%
X101785000Y-79285000D03*
%TO.P,MB1,2,GND_2*%
%TO.N,unconnected-(MB1-GND-Pad2)*%
X104325000Y-79285000D03*
%TO.P,MB1,3,PROG1_3*%
%TO.N,unconnected-(MB1-PROG1-Pad3)*%
X106865000Y-79285000D03*
%TO.P,MB1,4,PROG2_4*%
%TO.N,unconnected-(MB1-PROG2-Pad4)*%
X109405000Y-79285000D03*
%TO.P,MB1,5,PROG3_5*%
%TO.N,unconnected-(MB1-PROG3-Pad5)*%
X111945000Y-79285000D03*
%TO.P,MB1,6,PROG4_6*%
%TO.N,unconnected-(MB1-PROG4-Pad6)*%
X114485000Y-79285000D03*
%TO.P,MB1,7,+3V3_7*%
%TO.N,unconnected-(MB1-+3V3-Pad7)*%
X117025000Y-79285000D03*
%TO.P,MB1,8,GND_8*%
%TO.N,unconnected-(MB1-GND-Pad8)*%
X119565000Y-79285000D03*
%TO.P,MB1,9,CLK_9*%
%TO.N,unconnected-(MB1-CLK-Pad9)*%
X101785000Y-97065000D03*
%TO.P,MB1,10,NC_10*%
%TO.N,unconnected-(MB1-NC-Pad10)*%
X104325000Y-97065000D03*
%TO.P,MB1,11,NC_11*%
%TO.N,unconnected-(MB1-NC-Pad11)*%
X106865000Y-97065000D03*
%TO.P,MB1,12,NC_12*%
%TO.N,unconnected-(MB1-NC-Pad12)*%
X109405000Y-97065000D03*
%TO.P,MB1,13,SCL_13*%
%TO.N,unconnected-(MB1-SCL-Pad13)*%
X111945000Y-97065000D03*
%TO.P,MB1,14,SDA_14*%
%TO.N,unconnected-(MB1-SDA-Pad14)*%
X114485000Y-97065000D03*
%TO.P,MB1,15,3V3+_15*%
%TO.N,+3V3*%
X117025000Y-97065000D03*
%TO.P,MB1,16,GND_16*%
%TO.N,GND*%
X119565000Y-97065000D03*
%TD*%
D16*
%TO.P,R3,1*%
%TO.N,Net-(U1-PA2)*%
X116500000Y-86575000D03*
%TO.P,R3,2*%
%TO.N,Net-(D3-A)*%
X116500000Y-89500000D03*
%TD*%
D13*
%TO.P,D2,1,K_1*%
%TO.N,GND*%
X101500000Y-89500000D03*
%TO.P,D2,2,A_2*%
%TO.N,Net-(D2-A)*%
X101500000Y-86700000D03*
%TD*%
%TO.N,GND*%
D17*
X117400000Y-93500000D02*
X117400000Y-94900000D01*
X117400000Y-94900000D02*
X119565000Y-97065000D01*
X119565000Y-97065000D02*
X119078299Y-97551701D01*
X108800000Y-89480000D02*
X114165552Y-89480000D01*
X107780000Y-90500000D02*
X102500000Y-90500000D01*
X114165552Y-89480000D02*
X117400000Y-92714448D01*
X120000000Y-89500000D02*
X120000000Y-90900000D01*
X102500000Y-90500000D02*
X101500000Y-89500000D01*
X108200000Y-90080000D02*
X108800000Y-89480000D01*
X119565000Y-96565000D02*
X119565000Y-97065000D01*
X117400000Y-92714448D02*
X117400000Y-93500000D01*
X108200000Y-90080000D02*
X107780000Y-90500000D01*
X107580000Y-90080000D02*
X108200000Y-90080000D01*
X120000000Y-90900000D02*
X117400000Y-93500000D01*
%TO.N,Net-(D3-A)*%
X116500000Y-89500000D02*
X119300000Y-86700000D01*
X119300000Y-86700000D02*
X120000000Y-86700000D01*
%TO.N,+3V3*%
X115500000Y-92430000D02*
X113150000Y-90080000D01*
X115500000Y-93500000D02*
X115500000Y-92430000D01*
X117025000Y-97065000D02*
X115500000Y-95540000D01*
X115500000Y-95540000D02*
X115500000Y-93500000D01*
%TO.N,Net-(D2-A)*%
X104875000Y-86700000D02*
X105000000Y-86575000D01*
X101500000Y-86700000D02*
X104875000Y-86700000D01*
%TO.N,Net-(U1-PA1)*%
X112175001Y-86270000D02*
X113150000Y-86270000D01*
X106290000Y-88210000D02*
X110235001Y-88210000D01*
X105000000Y-89500000D02*
X106290000Y-88210000D01*
X110235001Y-88210000D02*
X112175001Y-86270000D01*
%TO.N,Net-(U1-PA2)*%
X110430075Y-81815000D02*
X111740000Y-81815000D01*
X108200000Y-84045075D02*
X110430075Y-81815000D01*
X108200000Y-86270000D02*
X108200000Y-84045075D01*
X111740000Y-81815000D02*
X116500000Y-86575000D01*
%TO.N,Net-(U1-~{RESET}{slash}PA0)*%
X108200000Y-87540000D02*
X109174999Y-87540000D01*
X109174999Y-87540000D02*
X110865000Y-85849999D01*
X110865000Y-85849999D02*
X110865000Y-82865000D01*
X111135000Y-83135000D02*
X110865000Y-82865000D01*
X108200000Y-87540000D02*
X107854448Y-87540000D01*
%TD*%
M02*
